# xmcd CD database file
#
# Track frame offsets:
#	150
#	13731
#	29753
#	45732
#	66751
#	85448
#	101284
#	117812
#	139984
#	157485
#	171200
#	180248
#	195621
#	212908
#	229178
#	244565
#
# Disc length: 3504 seconds
#
# Revision: 0
# Processed by: cddbd v1.5.1PL0 Copyright (c) Steve Scherf et al.
# Submitted via: CDex 1.51
#
DISCID=e10dae10
DTITLE=VVAA - En Plan Travesti
DYEAR=2004
DGENRE=Travesti Pop
TTITLE0=Yogurinha Borova - Si que anda mal el Panorama Musical
TTITLE1=Puti Records - Hazme el Amor
TTITLE2=Elektro - Cara a Cara
TTITLE3=Loud - Ni una Razón (Para no Herirte)
TTITLE4=Alive - Discusiones Bizantinas
TTITLE5=MJ y Las Sacerdotisas de Baal -  Hago lo que Quiero
TTITLE6=Varón Dandy - Carlos Fatality - Interviú
TTITLE7=Felix Daniel and Lourdes Madow - Serengeti
TTITLE8=Arakis - Las Chicas de StoneWall
TTITLE9=Vivian Caoba - SuperVivian
TTITLE10=Baby Horror - La Carrera de la Muerte del Año 2000
TTITLE11=LaDemonio Xtravaganza and Loud - Siempre te Llevo muy Dentro
TTITLE12=Rúdiguer - Como yo te Amo
TTITLE13=La Prohibida - Sin tu Amor
TTITLE14=La Rata de Antequera - Sesión Contínua
TTITLE15=La Prohibida, Glenda Galore, Agnes la Sucia y DJ Chavala - En Plan Travesti
EXTD=YEAR: 2004
EXTT0=
EXTT1=
EXTT2=
EXTT3=
EXTT4=
EXTT5=
EXTT6=
EXTT7=
EXTT8=
EXTT9=
EXTT10=
EXTT11=
EXTT12=
EXTT13=
EXTT14=
EXTT15=
PLAYORDER=
